<?xml version="1.0" encoding="UTF-8" standalone="no"?>
<!-- Created with Inkscape (http://www.inkscape.org/) -->

<svg
   width="16.383451mm"
   height="15.109047mm"
   viewBox="0 0 16.383451 15.109047"
   version="1.1"
   id="svg5"
   xmlns:inkscape="http://www.inkscape.org/namespaces/inkscape"
   xmlns:sodipodi="http://sodipodi.sourceforge.net/DTD/sodipodi-0.dtd"
   xmlns="http://www.w3.org/2000/svg"
   xmlns:svg="http://www.w3.org/2000/svg">
  <sodipodi:namedview
     id="namedview7"
     pagecolor="#ffffff"
     bordercolor="#000000"
     borderopacity="0.25"
     inkscape:showpageshadow="2"
     inkscape:pageopacity="0.0"
     inkscape:pagecheckerboard="0"
     inkscape:deskcolor="#d1d1d1"
     inkscape:document-units="mm"
     showgrid="false" />
  <defs
     id="defs2">
    <inkscape:path-effect
       effect="bspline"
       id="path-effect528"
       is_visible="true"
       lpeversion="1"
       weight="33.333333"
       steps="2"
       helper_size="0"
       apply_no_weight="true"
       apply_with_weight="true"
       only_selected="false" />
    <inkscape:path-effect
       effect="bspline"
       id="path-effect524"
       is_visible="true"
       lpeversion="1"
       weight="33.333333"
       steps="2"
       helper_size="0"
       apply_no_weight="true"
       apply_with_weight="true"
       only_selected="false" />
  </defs>
  <g
     inkscape:label="Layer 1"
     inkscape:groupmode="layer"
     id="layer1"
     transform="translate(-27.222453,-62.801268)">
    <g
       id="g930"
       transform="matrix(0.32095017,0,0,0.32095017,10.031624,37.650533)">
      <path
         style="fill:#aa0000;stroke-width:0.264583"
         d="m 63.426817,82.629449 c 0.887549,-0.596018 1.162904,-0.753749 4.15505,-1.641965 2.992147,-0.888216 8.700762,-2.506851 14.033454,-2.617953 5.332693,-0.111103 10.289008,1.285164 14.112029,3.531 3.823022,2.245835 6.51261,5.340892 7.83026,8.826486 1.31765,3.485594 1.26356,7.361528 0.56776,11.777963 -0.69581,4.41644 -2.03323,9.37319 -4.381119,13.15604 -2.347894,3.78284 -5.70619,6.39179 -9.922535,7.94324 -4.216345,1.55144 -9.290669,2.04531 -13.617696,1.75705 -4.327026,-0.28826 -7.90659,-1.35873 -10.824913,-2.82479 -2.918324,-1.46606 -5.17522,-3.32775 -7.041338,-5.9445 -1.866118,-2.61675 -3.341213,-5.98848 -4.110804,-9.31508 -0.769592,-3.32659 -0.833513,-6.60782 -0.38362,-9.608653 0.449893,-3.000827 1.413622,-5.720964 2.448695,-7.736618 1.035073,-2.015654 2.141392,-3.326592 3.444471,-4.499262 1.303079,-1.17267 2.802757,-2.206941 3.690306,-2.802958 z"
         id="path522"
         inkscape:path-effect="#path-effect524"
         inkscape:original-d="m 64.038924,82.191211 c 0.275621,-0.157467 0.550976,-0.315198 0.826069,-0.473194 5.70911,-1.618435 11.417725,-3.237069 17.12619,-4.856001 4.956781,1.39659 9.913096,2.792857 14.869247,4.188886 2.689961,3.095447 5.37955,6.190503 8.06893,9.285361 -0.0538,3.876352 -0.10792,7.752286 -0.16228,11.628037 -1.3372,4.95721 -2.67462,9.91396 -4.01233,14.87054 -3.358163,2.60932 -6.716458,5.21827 -10.075087,7.827 -5.074264,0.49415 -10.148588,0.98802 -15.223281,1.48163 -3.579439,-1.07025 -7.159003,-2.14072 -10.738903,-3.21148 -2.256718,-1.8615 -4.513614,-3.72319 -6.770817,-5.58518 -1.474888,-3.37159 -2.949982,-6.74332 -4.42537,-10.11538 -0.06366,-3.28109 -0.127582,-6.56232 -0.191768,-9.843878 0.964031,-2.71998 1.92776,-5.440117 2.891245,-8.16057 1.106628,-1.310728 2.212949,-2.621664 3.319026,-3.932894 1.500003,-1.03405 2.999682,-2.068319 4.499129,-3.102877 z" />
      <path
         style="fill:#ffffff;stroke-width:0.264583"
         d="m 84.117976,84.958001 c -1.108959,-0.431879 -1.108959,-0.431879 0.528616,-0.05173 1.637575,0.380146 4.912286,1.140336 7.228228,2.134652 2.315943,0.994316 3.67303,2.222516 4.530954,3.788222 0.857924,1.565706 1.216864,3.468766 0.823573,3.711802 -0.393292,0.243037 -1.538951,-1.173915 -2.925569,-2.68789 -1.386618,-1.513976 -3.014139,-3.124854 -4.936712,-4.362205 -1.922573,-1.237351 -4.14013,-2.100969 -5.24909,-2.532848 z"
         id="path526"
         inkscape:path-effect="#path-effect528"
         inkscape:original-d="m 83.009017,84.526122 c 2.64e-4,2.64e-4 2.64e-4,2.64e-4 0,0 3.275105,0.760484 6.549816,1.520674 9.824328,2.280615 1.357405,1.228514 2.714493,2.456712 4.071342,3.684672 0.359217,1.9034 0.718159,3.80646 1.076841,5.709293 -1.145442,-1.416746 -2.291101,-2.833698 -3.437049,-4.250944 -1.627319,-1.61068 -3.25484,-3.221558 -4.88266,-4.832733 -2.21738,-0.863389 -4.434938,-1.727004 -6.652802,-2.590903 z" />
    </g>
  </g>
</svg>
