<?xml version="1.0" encoding="UTF-8" standalone="no"?>
<!-- Created with Inkscape (http://www.inkscape.org/) -->

<svg
   width="10.380295mm"
   height="23.18174mm"
   viewBox="0 0 10.380295 23.18174"
   version="1.1"
   id="svg5"
   xmlns:inkscape="http://www.inkscape.org/namespaces/inkscape"
   xmlns:sodipodi="http://sodipodi.sourceforge.net/DTD/sodipodi-0.dtd"
   xmlns="http://www.w3.org/2000/svg"
   xmlns:svg="http://www.w3.org/2000/svg">
  <sodipodi:namedview
     id="namedview7"
     pagecolor="#ffffff"
     bordercolor="#000000"
     borderopacity="0.25"
     inkscape:showpageshadow="2"
     inkscape:pageopacity="0.0"
     inkscape:pagecheckerboard="0"
     inkscape:deskcolor="#d1d1d1"
     inkscape:document-units="mm"
     showgrid="false" />
  <defs
     id="defs2">
    <inkscape:path-effect
       effect="bspline"
       id="path-effect594"
       is_visible="true"
       lpeversion="1"
       weight="33.333333"
       steps="2"
       helper_size="0"
       apply_no_weight="true"
       apply_with_weight="true"
       only_selected="false" />
    <inkscape:path-effect
       effect="bspline"
       id="path-effect590"
       is_visible="true"
       lpeversion="1"
       weight="33.333333"
       steps="2"
       helper_size="0"
       apply_no_weight="true"
       apply_with_weight="true"
       only_selected="false" />
  </defs>
  <g
     inkscape:label="Layer 1"
     inkscape:groupmode="layer"
     id="layer1"
     transform="translate(-55.180078,-57.814009)">
    <g
       id="g934"
       transform="matrix(0.34672602,0,0,0.34672602,31.06978,41.157689)">
      <path
         style="fill:#008000;stroke-width:0.264583"
         d="m 77.240693,110.71545 c 0.966068,0.29593 1.649542,-0.55218 4.717943,-1.96923 3.068401,-1.41704 8.52133,-3.40284 8.929436,-4.03762 0.408105,-0.63478 -4.228606,0.0815 -4.083587,-1.33944 0.145019,-1.42089 5.071833,-4.978787 5.182462,-5.757083 0.11063,-0.778296 -4.594921,1.223022 -4.213854,-0.358181 0.381067,-1.581203 5.848751,-6.744809 6.249478,-7.91355 0.400727,-1.168741 -4.265485,1.657406 -3.559866,-0.04534 0.70562,-1.702741 6.783008,-7.934233 7.036215,-9.184419 0.253208,-1.250186 -5.317732,2.480953 -4.980896,0.359322 0.336837,-2.121631 6.581407,-10.09587 6.940314,-11.437832 0.358908,-1.341962 -5.167781,3.948339 -5.883204,2.26112 -0.715423,-1.687219 3.380423,-10.351829 3.463981,-11.842475 0.08356,-1.490647 -3.845108,4.19267 -4.371212,1.800827 -0.526104,-2.391843 2.350334,-12.858673 2.018395,-13.203784 -0.33194,-0.345111 -3.872168,9.431341 -6.001223,11.966679 -2.129054,2.535338 -2.846933,-2.170599 -3.247701,-2.105927 -0.400767,0.06467 -0.484355,4.899893 -1.637298,6.20179 -1.152943,1.301897 -3.37542,-0.929546 -3.59675,0.689203 -0.221331,1.618749 1.558617,7.08746 0.580179,8.4617 -0.978437,1.374239 -4.715346,-1.345897 -5.160375,-0.167998 -0.445029,1.177899 2.401903,6.25359 2.143791,8.360836 -0.258111,2.107246 -3.621331,1.246214 -4.108158,2.80169 -0.486827,1.555475 1.902821,5.527077 1.465231,6.947825 -0.43759,1.420747 -3.702461,0.290808 -4.012245,1.219199 -0.309785,0.928392 2.335551,3.914847 2.126572,5.128728 -0.208979,1.213881 -3.272259,0.655372 -3.658271,2.024673 -0.386012,1.369303 1.905307,4.666053 3.675486,7.034583 1.770178,2.36854 3.019088,3.80876 3.985157,4.1047 z"
         id="path588"
         inkscape:path-effect="#path-effect590"
         inkscape:original-d="m 77.523313,111.85947 c 0.68374,-0.84785 1.36721,-1.69597 2.05042,-2.54435 5.45342,-1.98562 10.90635,-3.97142 16.35913,-5.95753 -4.63664,0.71653 -9.27335,1.43277 -13.91042,2.14875 4.92728,-3.55777 9.85409,-7.115669 14.78074,-10.673899 -4.70547,2.00166 -9.41102,4.00298 -14.11693,6.004069 5.46816,-5.163549 10.93585,-10.327149 16.40337,-15.491119 -4.66614,2.82652 -9.33235,5.65267 -13.99892,8.47861 6.07789,-6.23147 12.15528,-12.46296 18.232517,-18.694838 -5.570887,3.731548 -11.141827,7.462688 -16.713147,11.193638 6.24508,-7.97429 12.48965,-15.948529 18.734077,-23.923189 -5.526647,5.290775 -11.053337,10.581076 -16.580397,15.871219 4.09628,-8.664697 8.19212,-17.329309 12.287787,-25.99436 -3.928567,5.683816 -7.857227,11.367137 -11.786247,17.050311 2.87682,-10.466986 5.75326,-20.933815 8.62949,-31.40112 -3.54011,9.77711 -7.08033,19.553565 -10.6209,29.329951 -0.71764,-4.705861 -1.43552,-9.411798 -2.15368,-14.118093 -0.0833,4.835679 -0.16691,9.670899 -0.25077,14.505953 -2.2223,-2.231265 -4.44478,-4.462705 -6.66756,-6.694458 1.78028,5.469197 3.56023,10.937907 5.33995,16.406463 -3.73679,-2.719977 -7.4737,-5.440111 -11.21094,-8.160565 2.8473,5.076156 5.69423,10.151848 8.54096,15.227368 -3.36308,-0.8608 -6.7263,-1.72183 -10.08984,-2.58314 2.39001,3.97203 4.77966,7.94363 7.16909,11.91505 -3.26474,-1.12973 -6.52961,-2.25967 -9.79482,-3.38989 2.64571,2.98684 5.29104,5.9733 7.93617,8.95955 -3.06314,-0.55826 -6.12642,-1.11677 -9.19002,-1.67556 2.29167,3.297139 4.58299,6.593889 6.87408,9.890429 1.24923,1.44055 2.49814,2.88077 3.74681,4.32075 z" />
      <path
         style="fill:#ffffff;stroke-width:0.264583"
         d="m 75.160646,114.85904 c 0.02702,-0.15762 0.08111,-0.47309 0.661375,-1.03303 0.580267,-0.55995 1.686591,-1.36409 4.078739,-9.40834 2.392148,-8.044255 6.07005,-23.328204 7.901689,-31.071133 1.831638,-7.742928 1.816872,-7.944606 1.659643,-8.182513 -0.157228,-0.237907 -0.457165,-0.511992 -1.126061,0.934712 -0.668895,1.446703 -1.706378,4.614162 -3.968265,13.05414 -2.261888,8.439978 -5.748024,22.151834 -7.491103,29.007814 -1.74308,6.85597 -1.74304,6.85597 -1.716017,6.69835 z"
         id="path592"
         inkscape:path-effect="#path-effect594"
         inkscape:original-d="m 75.133623,115.01666 c 0.0543,-0.3152 0.10843,-0.63066 0.16225,-0.94638 1.10663,-0.80392 2.21296,-1.60806 3.31903,-2.41249 3.67832,-15.284299 7.35622,-30.568249 11.03393,-45.852774 -0.0145,-0.201425 -0.0292,-0.403108 -0.0443,-0.60506 -0.29968,-0.273827 -0.59962,-0.547909 -0.89982,-0.822261 -1.03726,3.167848 -2.07475,6.335305 -3.11251,9.50256 -3.48602,13.712676 -6.97215,27.424535 -10.45862,41.136405 z" />
    </g>
  </g>
</svg>
