<?xml version="1.0" encoding="UTF-8" standalone="no"?>
<!-- Created with Inkscape (http://www.inkscape.org/) -->

<svg
   width="15.55793mm"
   height="19.864849mm"
   viewBox="0 0 15.55793 19.864849"
   version="1.1"
   id="svg5"
   xmlns:inkscape="http://www.inkscape.org/namespaces/inkscape"
   xmlns:sodipodi="http://sodipodi.sourceforge.net/DTD/sodipodi-0.dtd"
   xmlns="http://www.w3.org/2000/svg"
   xmlns:svg="http://www.w3.org/2000/svg">
  <sodipodi:namedview
     id="namedview7"
     pagecolor="#ffffff"
     bordercolor="#000000"
     borderopacity="0.25"
     inkscape:showpageshadow="2"
     inkscape:pageopacity="0.0"
     inkscape:pagecheckerboard="0"
     inkscape:deskcolor="#d1d1d1"
     inkscape:document-units="mm"
     showgrid="false" />
  <defs
     id="defs2">
    <inkscape:path-effect
       effect="bspline"
       id="path-effect764"
       is_visible="true"
       lpeversion="1"
       weight="33.333333"
       steps="2"
       helper_size="0"
       apply_no_weight="true"
       apply_with_weight="true"
       only_selected="false" />
    <inkscape:path-effect
       effect="bspline"
       id="path-effect706"
       is_visible="true"
       lpeversion="1"
       weight="33.333333"
       steps="2"
       helper_size="0"
       apply_no_weight="true"
       apply_with_weight="true"
       only_selected="false" />
  </defs>
  <g
     inkscape:label="Layer 1"
     inkscape:groupmode="layer"
     id="layer1"
     transform="translate(-74.749162,-60.858217)">
    <g
       id="g1099">
      <path
         style="fill:#d45500;stroke-width:0.11703"
         d="m 81.313965,79.516444 c 0.03479,-0.129199 0.104385,-0.387684 0.951592,-0.630772 0.847206,-0.243088 2.471838,-0.470683 3.606005,-1.05454 1.134167,-0.583857 1.77793,-1.523975 1.547456,-2.289674 -0.230474,-0.765699 -1.33531,-1.356992 -2.245521,-1.916263 -0.910211,-0.559272 -1.625746,-1.086515 -1.808508,-1.570923 -0.182762,-0.484408 0.167391,-0.925877 0.683987,-1.238131 0.516596,-0.312254 1.199505,-0.495244 1.896584,-0.633059 0.697079,-0.137814 1.408261,-0.230453 2.084635,-0.461493 0.676374,-0.231039 1.317959,-0.600453 1.695279,-1.050456 0.37732,-0.450003 0.490413,-0.980676 0.381718,-1.506767 -0.108696,-0.526091 -0.439273,-1.047616 -0.869885,-1.459957 -0.430611,-0.412341 -0.961283,-0.71542 -1.506106,-0.983634 -0.544822,-0.268215 -1.103763,-0.501528 -1.583354,-0.59592 -0.479592,-0.09439 -0.879772,-0.04979 -1.373493,0.05314 -0.493721,0.10293 -1.080934,0.264191 -1.570336,0.546705 -0.489402,0.282514 -0.880881,0.686238 -0.960204,1.002536 -0.07932,0.316298 0.153393,0.545037 0.528568,0.650198 0.375176,0.105161 0.892795,0.08686 1.307067,-0.05668 0.414272,-0.143542 0.725276,-0.412309 0.941666,-0.757102 0.216391,-0.344793 0.338185,-0.765672 0.384961,-1.225429 0.04678,-0.459756 0.0185,-0.958406 -0.08804,-1.378145 -0.106538,-0.419739 -0.291403,-0.760559 -0.575202,-1.028797 -0.283799,-0.268238 -0.666577,-0.46381 -1.097214,-0.634811 -0.430638,-0.171001 -0.90911,-0.317395 -1.377826,-0.368888 -0.468716,-0.05149 -0.927613,-0.008 -1.321296,0.07431 -0.393683,0.08234 -0.722088,0.203573 -0.94286,0.301936 -0.220773,0.09836 -0.333868,0.173847 -0.476339,0.292803 -0.142471,0.118956 -0.314286,0.28136 -0.595913,0.44376 -0.281628,0.162399 -0.673106,0.324804 -1.046072,0.387727 -0.372965,0.06292 -0.72747,0.02632 -0.940614,-0.02281 -0.213144,-0.04913 -0.284915,-0.110892 -0.362177,-0.403105 -0.07726,-0.292213 -0.159906,-0.814881 -0.364373,-0.778893 -0.204468,0.03599 -0.530699,0.630709 -0.465379,1.1683 0.06532,0.53759 0.522041,1.017942 1.038594,1.278655 0.516554,0.260713 1.092894,0.301886 1.51917,0.307022 0.426276,0.0051 0.702486,-0.02574 1.011297,-0.131544 0.30881,-0.105801 0.650267,-0.286505 0.981947,-0.454634 0.331679,-0.168128 0.653559,-0.32367 0.975467,-0.442044 0.321908,-0.118375 0.643791,-0.199577 0.931985,-0.240752 0.288195,-0.04118 0.542656,-0.04234 0.819973,0.03889 0.277316,0.08123 0.577447,0.24478 0.791638,0.480422 0.214191,0.235642 0.34251,0.543295 0.475176,0.908145 0.132665,0.36485 0.269681,0.786873 0.344695,1.183737 0.07501,0.396863 0.08806,0.768563 -0.0066,1.201434 -0.09463,0.43287 -0.296891,0.926947 -0.55676,1.249435 -0.259869,0.322489 -0.577399,0.473457 -0.928611,0.522084 -0.351212,0.04863 -0.736162,-0.0051 -1.048269,-0.140039 -0.312106,-0.134913 -0.551343,-0.351071 -0.630797,-0.682191 -0.07945,-0.33112 0.001,-0.77716 0.234861,-1.082021 0.233845,-0.304861 0.620971,-0.46841 0.941772,-0.606229 0.320801,-0.137819 0.575262,-0.249901 0.837359,-0.335106 0.262096,-0.08521 0.531783,-0.143533 0.784079,-0.194428 0.252295,-0.05089 0.487182,-0.09435 0.768858,-0.08461 0.281675,0.0097 0.610078,0.07265 0.921095,0.205924 0.311016,0.133279 0.604623,0.336857 0.88084,0.530148 0.276216,0.19329 0.535026,0.376281 0.790572,0.591313 0.255547,0.215032 0.50783,0.462071 0.714443,0.674807 0.206614,0.212736 0.367555,0.391153 0.45885,0.683376 0.0913,0.292223 0.113045,0.698236 0.05213,1.114526 -0.06091,0.41629 -0.204455,0.842889 -0.432808,1.191114 -0.228353,0.348225 -0.541533,0.618135 -0.925376,0.818853 -0.383843,0.200717 -0.838392,0.332243 -1.255974,0.445473 -0.417583,0.113229 -0.79819,0.208157 -1.129873,0.297367 -0.331683,0.08921 -0.614413,0.172699 -0.852571,0.247612 -0.238158,0.07491 -0.431727,0.141249 -0.6286,0.325415 -0.196873,0.184166 -0.39696,0.486102 -0.476328,0.823552 -0.07937,0.337449 -0.03805,0.710295 0.05009,0.952179 0.08814,0.241884 0.222987,0.352825 0.416563,0.462601 0.193576,0.109775 0.445857,0.218426 0.678577,0.31278 0.232719,0.09435 0.445858,0.174414 0.641602,0.24246 0.195743,0.06805 0.374086,0.124088 0.565481,0.199013 0.191396,0.07493 0.395831,0.168708 0.680745,0.319116 0.284914,0.150407 0.650293,0.357416 0.899289,0.588481 0.248997,0.231065 0.381664,0.486107 0.439261,0.789182 0.0576,0.303075 0.0402,0.654187 -0.01092,0.926938 -0.05112,0.272751 -0.135942,0.467179 -0.346888,0.682163 -0.210946,0.214984 -0.548054,0.450587 -0.843831,0.626715 -0.295776,0.176129 -0.550236,0.292785 -0.841638,0.33112 -0.291402,0.03833 -0.619807,-0.0017 -0.966709,-0.04516 -0.346902,-0.04346 -0.712283,-0.09035 -1.065722,-0.101801 -0.353439,-0.01145 -0.694895,0.01257 -1.054854,0.05888 -0.35996,0.04632 -0.738386,0.114937 -0.927651,0.149257 -0.189265,0.03432 -0.189266,0.0344 -0.154478,-0.0948 z"
         id="path704"
         inkscape:path-effect="#path-effect706"
         inkscape:original-d="m 81.279177,79.645643 c 0.06971,-0.258362 0.139313,-0.516845 0.208792,-0.775442 1.624813,-0.227484 3.249445,-0.455078 4.873988,-0.682797 0.643905,-0.940038 1.287669,-1.880155 1.931326,-2.820404 -1.104761,-0.591199 -2.209598,-1.18249 -3.314566,-1.77391 -0.715446,-0.527147 -1.430981,-1.05439 -2.146643,-1.581758 0.350281,-0.441367 0.700438,-0.882832 1.050475,-1.324425 0.68306,-0.182881 1.365969,-0.365873 2.04878,-0.548984 0.711328,-0.09252 1.422509,-0.185164 2.13359,-0.277922 0.641729,-0.369314 1.283316,-0.738725 1.924797,-1.108265 0.113216,-0.530577 0.226308,-1.06125 0.339285,-1.592052 -0.330474,-0.521429 -0.661054,-1.042952 -0.991753,-1.564605 -0.530574,-0.302973 -1.061246,-0.606052 -1.592046,-0.909255 -0.558847,-0.233206 -1.117788,-0.466519 -1.676861,-0.699955 -0.400072,0.04472 -0.800251,0.08933 -1.200554,0.133816 -0.587115,0.161385 -1.174329,0.322645 -1.761675,0.483792 -0.391376,0.403857 -0.782855,0.807582 -1.174462,1.211197 0.232841,0.228864 0.465558,0.457602 0.698156,0.686229 0.517756,-0.01818 1.035375,-0.03648 1.552888,-0.0549 0.311135,-0.268662 0.622138,-0.53743 0.933035,-0.806321 0.121916,-0.420779 0.243713,-0.841657 0.36539,-1.262662 -0.02818,-0.498554 -0.05643,-0.997205 -0.08482,-1.495982 -0.184756,-0.340717 -0.369619,-0.681538 -0.554605,-1.022483 -0.382677,-0.195463 -0.765455,-0.391034 -1.148357,-0.586727 -0.478372,-0.146282 -0.956845,-0.292675 -1.435443,-0.439187 -0.458799,0.04358 -0.917696,0.08704 -1.376716,0.130383 -0.328307,0.121353 -0.656711,0.242584 -0.985238,0.363701 -0.112982,0.0756 -0.226074,0.15109 -0.33929,0.226458 -0.171703,0.162528 -0.343517,0.324933 -0.515455,0.487224 -0.391373,0.162528 -0.782851,0.324933 -1.174454,0.487223 -0.354398,-0.03648 -0.708903,-0.07308 -1.063532,-0.109798 -0.07166,-0.06164 -0.143427,-0.123403 -0.215317,-0.185282 -0.08253,-0.522572 -0.165175,-1.04524 -0.247937,-1.568036 -0.32613,0.594862 -0.652362,1.189583 -0.978714,1.784198 0.456858,0.480488 0.913578,0.960841 1.370193,1.441085 0.576482,0.04129 1.152823,0.08246 1.729058,0.123522 0.276339,-0.03076 0.552549,-0.06164 0.828644,-0.09264 0.341585,-0.180594 0.683042,-0.361298 1.024383,-0.542121 0.322013,-0.155432 0.643892,-0.310975 0.965661,-0.466638 0.322013,-0.08109 0.643897,-0.162291 0.965666,-0.243612 0.254585,-0.0011 0.509047,-0.0022 0.763397,-0.0035 0.30026,0.163671 0.60039,0.32722 0.900411,0.490653 0.128445,0.307784 0.256761,0.615438 0.384967,0.922982 0.137137,0.422157 0.274154,0.84418 0.411056,1.266093 0.01318,0.371833 0.02623,0.743533 0.03915,1.115123 -0.202153,0.494214 -0.404421,0.98829 -0.606808,1.482259 -0.317426,0.151091 -0.634957,0.302057 -0.952608,0.452911 -0.384853,-0.05364 -0.769803,-0.107393 -1.154881,-0.161264 -0.239126,-0.216049 -0.478363,-0.432207 -0.717724,-0.648487 0.08059,-0.445941 0.161062,-0.891981 0.241418,-1.338148 0.387259,-0.163439 0.774385,-0.326987 1.161405,-0.490656 0.254585,-0.11197 0.509046,-0.224052 0.763397,-0.336253 0.26981,-0.05821 0.539496,-0.116542 0.809072,-0.174988 0.235012,-0.04334 0.469897,-0.08681 0.70467,-0.130383 0.328537,0.06302 0.65694,0.125925 0.985238,0.188713 0.293735,0.203702 0.587342,0.407281 0.880838,0.610745 0.258937,0.183116 0.517747,0.366106 0.776446,0.548983 0.252409,0.247166 0.504694,0.494203 0.756864,0.74113 0.161062,0.17854 0.322004,0.356956 0.482831,0.535259 0.02185,0.406144 0.04361,0.812156 0.06525,1.218058 -0.143431,0.426731 -0.286972,0.85333 -0.430633,1.279818 -0.313077,0.27004 -0.626257,0.539951 -0.939564,0.809752 -0.454447,0.131648 -0.908996,0.263171 -1.363668,0.394584 -0.3805,0.09504 -0.761107,0.189971 -1.141836,0.284787 -0.282629,0.08361 -0.565359,0.167099 -0.848212,0.250471 -0.193457,0.06645 -0.387025,0.132789 -0.580707,0.199008 -0.199977,0.302064 -0.400064,0.604 -0.600271,0.905824 0.04145,0.372972 0.08276,0.74582 0.123964,1.118553 0.134965,0.111058 0.26981,0.222 0.404541,0.332823 0.252409,0.10877 0.504689,0.217422 0.75686,0.325958 0.213268,0.08018 0.426408,0.160238 0.639433,0.240183 0.178462,0.05616 0.356805,0.112199 0.535033,0.168125 0.204559,0.09391 0.408998,0.187685 0.613318,0.281355 0.36551,0.207133 0.730888,0.414143 1.096154,0.621037 0.132793,0.255174 0.265462,0.510215 0.398016,0.765149 -0.01729,0.351246 -0.03468,0.702358 -0.0522,1.05336 -0.08471,0.194554 -0.169527,0.388984 -0.254466,0.583298 -0.337002,0.235725 -0.674111,0.471326 -1.011339,0.706816 -0.254351,0.116781 -0.508812,0.233434 -0.763397,0.349976 -0.328298,-0.0399 -0.656702,-0.07994 -0.985229,-0.12009 -0.365276,-0.04678 -0.730657,-0.09367 -1.096163,-0.140675 -0.34135,0.02415 -0.682807,0.04815 -1.024388,0.07205 -0.378323,0.06874 -0.756749,0.137362 -1.135303,0.205868 z" />
      <path
         style="fill:#ff9955;stroke-width:0.11703"
         d="m 82.212217,80.723025 c 0,0 0,0 -0.0065,-0.408827 -0.0065,-0.408828 -0.01957,-1.226569 0.258859,-1.736741 0.278428,-0.510172 0.848245,-0.712605 1.397451,-0.773199 0.549206,-0.06059 1.077701,0.02061 1.57141,0.24425 0.49371,0.223641 0.952607,0.589623 1.413668,0.706217 0.461061,0.116595 0.924307,-0.01607 1.242883,-0.255651 0.318577,-0.239578 0.492568,-0.586115 0.537179,-0.966361 0.04461,-0.380246 -0.04021,-0.794265 -0.258736,-1.100239 -0.218527,-0.305974 -0.570862,-0.503835 -0.975407,-0.622243 -0.404546,-0.118408 -0.861268,-0.157295 -1.278885,-0.106987 -0.417616,0.05031 -0.796043,0.189839 -1.167929,0.252756 -0.371887,0.06292 -0.737268,0.04919 -1.018921,-0.04912 -0.281654,-0.09831 -0.479565,-0.281298 -0.538358,-0.532933 -0.05879,-0.251635 0.02168,-0.57187 0.200032,-0.880716 0.178352,-0.308846 0.454561,-0.60621 0.753627,-0.870421 0.299065,-0.26421 0.620944,-0.495234 0.840591,-0.762827 0.219648,-0.267594 0.337093,-0.571817 0.413226,-1.03958 0.07613,-0.467763 0.110933,-1.09908 0.159861,-1.473683 0.04893,-0.374603 0.112,-0.492405 0.390418,-0.710315 0.278419,-0.217911 0.772116,-0.535859 1.336534,-0.798918 0.564417,-0.26306 1.19948,-0.471213 1.688818,-0.68566 0.489338,-0.214448 0.832963,-0.435179 1.00694,-0.912049 0.173977,-0.47687 0.178327,-1.209977 -0.03367,-1.753252 -0.211995,-0.543276 -0.640442,-0.896677 -1.068905,-1.09573 -0.428463,-0.199053 -0.85691,-0.243656 -1.210376,-0.201928 -0.353466,0.04173 -0.631853,0.169822 -0.846113,0.31509 -0.21426,0.145269 -0.364326,0.307673 -0.503529,0.508987 -0.139203,0.201315 -0.267519,0.441492 -0.434989,0.867547 -0.16747,0.426055 -0.374082,1.037932 -0.578525,1.510272 -0.204442,0.47234 -0.406707,0.805154 -0.613311,1.061328 -0.206605,0.256175 -0.417564,0.435733 -0.660028,0.548958 -0.242464,0.113224 -0.516498,0.160115 -0.802482,0.1447 -0.285984,-0.01542 -0.583941,-0.09319 -0.925404,-0.198403 -0.341462,-0.105216 -0.726416,-0.237885 -1.027659,-0.421988 -0.301243,-0.184103 -0.518734,-0.419706 -0.66883,-0.630142 -0.150095,-0.210436 -0.23274,-0.395716 -0.232782,-0.614203 -4.2e-5,-0.218487 0.0826,-0.470102 0.244643,-0.737193 0.162042,-0.267092 0.403452,-0.549582 0.762329,-0.884705 0.358877,-0.335124 0.835174,-0.722836 1.264732,-1.045942 0.429557,-0.323106 0.812337,-0.58158 1.138573,-0.81547 0.326235,-0.23389 0.595917,-0.443186 0.804691,-0.67591 0.208773,-0.232724 0.356663,-0.488911 0.448009,-0.669029 0.09135,-0.180118 0.126147,-0.284199 0.09899,-0.538647 -0.02716,-0.254449 -0.11633,-0.659316 -0.459928,-0.867539 -0.343598,-0.208224 -0.941688,-0.21966 -1.341923,-0.149899 -0.400236,0.06976 -0.6025,0.220728 -0.797173,0.407741 -0.194674,0.187013 -0.381714,0.410032 -0.609,0.742298 -0.227287,0.332265 -0.494793,0.773731 -0.852559,1.213478 -0.357767,0.439747 -0.805791,0.877781 -1.237448,1.047067 -0.431658,0.169285 -0.847057,0.06979 -1.118939,-0.05598 -0.271883,-0.125764 -0.400201,-0.277874 -0.5329,-0.546644 -0.1327,-0.26877 -0.269715,-0.654195 -0.45348,-1.032199 -0.183764,-0.378003 -0.4143,-0.74856 -0.616541,-0.971624 -0.202242,-0.223064 -0.376232,-0.298549 -0.595901,-0.371759 -0.21967,-0.07321 -0.485005,-0.144119 -0.77757,-0.122418 -0.292565,0.0217 -0.61227,0.13607 -0.818918,0.236154 -0.206648,0.100085 -0.300169,0.185863 -0.34911,0.332895 -0.04894,0.147032 -0.05329,0.355181 0.298024,0.452337 0.351315,0.09716 1.058149,0.08343 1.467026,0.147544 0.408877,0.06411 0.519798,0.205932 0.617664,0.342039 0.09787,0.136106 0.182687,0.266488 0.291415,0.511822 0.108729,0.245334 0.241395,0.605596 0.380616,0.877798 0.139222,0.272201 0.284938,0.456334 0.497014,0.627296 0.212075,0.170962 0.490462,0.328793 0.76775,0.399662 0.277288,0.07087 0.553498,0.05486 0.904717,-0.0721 0.351218,-0.126962 0.777494,-0.364851 1.158088,-0.642768 0.380595,-0.277916 0.715523,-0.595863 0.962365,-0.878348 0.246843,-0.282484 0.405608,-0.52952 0.539368,-0.730818 0.13376,-0.201299 0.242506,-0.356843 0.406732,-0.518127 0.164226,-0.161285 0.383886,-0.328263 0.591654,-0.3797 0.207769,-0.05144 0.403506,0.01261 0.589467,0.07666 0.18596,0.06405 0.362121,0.128097 0.543698,0.320861 0.181577,0.192763 0.368615,0.514142 0.373997,0.889818 0.0054,0.375675 -0.170785,0.805705 -0.418719,1.196261 -0.247935,0.390555 -0.567641,0.741671 -0.888415,0.990987 -0.320775,0.249316 -0.642655,0.396851 -0.876463,0.507792 -0.233809,0.110942 -0.379526,0.185283 -0.551363,0.307098 -0.171837,0.121814 -0.369749,0.29108 -0.494819,0.552477 -0.125071,0.261396 -0.177269,0.614798 -0.04235,0.895579 0.134922,0.28078 0.456802,0.488932 0.722139,0.598116 0.265336,0.109184 0.474128,0.119477 0.971039,-0.323721 0.496911,-0.443198 1.282039,-1.339854 1.776827,-1.948304 0.494789,-0.60845 0.699226,-0.928683 0.926518,-1.204339 0.227293,-0.275655 0.477403,-0.506681 0.705807,-0.652515 0.228404,-0.145834 0.43502,-0.20645 0.702568,-0.126903 0.267549,0.07955 0.595956,0.299137 0.826485,0.483865 0.230528,0.184728 0.363194,0.334551 0.550229,0.594185 0.187034,0.259634 0.428445,0.629047 0.559988,0.976735 0.131544,0.347687 0.153293,0.67364 0.136964,0.912649 -0.01633,0.23901 -0.0707,0.39112 -0.213165,0.743387 -0.14246,0.352266 -0.372997,0.904673 -0.652467,1.353557 -0.279469,0.448885 -0.607875,0.79428 -0.89166,0.996135 -0.283785,0.201855 -0.523021,0.260184 -0.873186,0.340246 -0.350164,0.08006 -0.811236,0.18185 -1.226659,0.304799 -0.415422,0.122948 -0.785152,0.267056 -0.993984,0.45354 -0.208832,0.186485 -0.25668,0.41522 -0.20226,0.670297 0.05442,0.255077 0.21101,0.536428 0.343675,0.797771 0.132664,0.261343 0.241409,0.502662 0.232666,0.80743 -0.0087,0.304768 -0.134885,0.673038 -0.398032,1.012111 -0.263146,0.339073 -0.663325,0.649015 -1.0211,0.913786 -0.357775,0.264771 -0.673135,0.484361 -0.707895,0.756071 -0.03476,0.27171 0.211001,0.595376 0.429591,0.758297 0.21859,0.162921 0.409984,0.165221 0.745999,0.117181 0.336015,-0.04804 0.816664,-0.146399 1.25818,-0.224171 0.441516,-0.07777 0.843867,-0.134958 1.264718,-0.191 0.420852,-0.05604 0.860172,-0.110939 1.270164,-0.10749 0.409993,0.0035 0.790598,0.06521 1.060295,0.122407 0.269697,0.0572 0.428463,0.109807 0.504511,0.401494 0.07605,0.291687 0.06952,0.822363 -0.06316,1.250638 -0.132681,0.428275 -0.39149,0.754228 -0.714429,0.985813 -0.322939,0.231585 -0.710066,0.368827 -1.104791,0.432318 -0.394725,0.06349 -0.797076,0.0532 -1.196169,0.0035 -0.399094,-0.04974 -0.794919,-0.138947 -1.134206,-0.241297 -0.339288,-0.10235 -0.622025,-0.217862 -0.829733,-0.293359 -0.207709,-0.0755 -0.340371,-0.110951 -0.562228,-0.121837 -0.221856,-0.01089 -0.532864,0.0028 -0.824345,0.09262 -0.291481,0.08978 -0.563342,0.255612 -0.769988,0.459796 -0.206646,0.204184 -0.348012,0.446644 -0.384945,0.647992 -0.03693,0.201348 0.03049,0.361466 0.06417,0.441457 0.03368,0.07999 0.03369,0.07995 0.03369,0.07995 z"
         id="path762"
         inkscape:path-effect="#path-effect764"
         inkscape:original-d="m 82.212217,80.723025 c 1.15e-4,1.15e-4 1.15e-4,1.15e-4 0,0 -0.01291,-0.817657 -0.02596,-1.635398 -0.03914,-2.453275 0.569954,-0.202325 1.139771,-0.404756 1.709482,-0.607312 0.528637,0.08132 1.057132,0.162521 1.585521,0.243612 0.459034,0.366111 0.917931,0.732093 1.376717,1.097966 0.463386,-0.132558 0.926631,-0.265227 1.389769,-0.398012 0.174119,-0.346436 0.348105,-0.692975 0.521985,-1.039637 -0.08471,-0.413918 -0.169528,-0.827937 -0.254466,-1.24208 -0.352227,-0.197747 -0.704561,-0.395609 -1.057013,-0.593587 -0.456624,-0.03879 -0.913348,-0.07766 -1.370193,-0.116661 -0.378328,0.139653 -0.756753,0.279187 -1.135303,0.418601 -0.36528,-0.01362 -0.730661,-0.02734 -1.096167,-0.04118 -0.1978,-0.182881 -0.395711,-0.365872 -0.593746,-0.548983 0.08059,-0.320128 0.161061,-0.640363 0.241417,-0.960721 0.276334,-0.297255 0.552545,-0.594617 0.828636,-0.892103 0.322012,-0.230917 0.643891,-0.46194 0.965665,-0.693091 0.117564,-0.304116 0.235012,-0.608338 0.352342,-0.912685 0.0349,-0.631228 0.06971,-1.262545 0.1044,-1.893994 0.06319,-0.117688 0.12626,-0.235491 0.189215,-0.353408 0.493831,-0.317842 0.987529,-0.635789 1.481117,-0.95386 0.635205,-0.208045 1.270268,-0.416198 1.905225,-0.624471 0.343761,-0.220625 0.687385,-0.441357 1.030903,-0.662211 0.0045,-0.733021 0.0088,-1.466128 0.01305,-2.199367 -0.42835,-0.3533 -0.856798,-0.706701 -1.285369,-1.060227 -0.428355,-0.04449 -0.856802,-0.08909 -1.285382,-0.133814 -0.278276,0.128215 -0.556663,0.256309 -0.835169,0.384287 -0.149959,0.162528 -0.300024,0.324933 -0.450209,0.487224 -0.128202,0.240302 -0.256518,0.480479 -0.384954,0.720544 -0.206506,0.612017 -0.413117,1.223894 -0.619848,1.835665 -0.202157,0.332945 -0.40442,0.66576 -0.606807,0.998466 -0.210854,0.179683 -0.421813,0.359242 -0.632896,0.53869 -0.273928,0.04701 -0.547962,0.0939 -0.822124,0.140675 -0.297849,-0.07766 -0.595808,-0.155426 -0.893886,-0.233318 -0.384849,-0.132554 -0.769803,-0.265223 -1.154881,-0.398012 -0.217377,-0.235494 -0.43487,-0.471095 -0.652482,-0.706818 -0.08253,-0.185168 -0.165175,-0.370448 -0.247937,-0.555847 0.08276,-0.251506 0.16541,-0.503119 0.247937,-0.754854 0.241542,-0.282385 0.48295,-0.564877 0.724248,-0.847492 0.476435,-0.387611 0.952732,-0.775323 1.428919,-1.16316 0.382915,-0.258368 0.765693,-0.516845 1.148365,-0.775441 0.26981,-0.209187 0.539492,-0.418483 0.809063,-0.6279 0.148013,-0.256081 0.295902,-0.512269 0.443681,-0.768579 0.0349,-0.103963 0.06972,-0.208038 0.1044,-0.312234 -0.08906,-0.404767 -0.178228,-0.809635 -0.267514,-1.214628 -0.597997,-0.01132 -1.196087,-0.02276 -1.794301,-0.03431 -0.202157,0.151092 -0.40442,0.30206 -0.606808,0.452914 -0.186932,0.223146 -0.373971,0.446165 -0.561134,0.669073 -0.267399,0.441601 -0.534904,0.883067 -0.802534,1.324425 -0.447927,0.438169 -0.895951,0.876203 -1.3441,1.31413 -0.415301,-0.09939 -0.8307,-0.198889 -1.246228,-0.29851 -0.128206,-0.152 -0.256522,-0.304112 -0.384963,-0.456342 -0.136902,-0.385323 -0.273919,-0.770748 -0.411055,-1.156298 -0.230426,-0.370454 -0.460963,-0.741011 -0.691623,-1.111692 -0.17388,-0.07537 -0.34787,-0.150855 -0.52198,-0.226458 -0.265227,-0.07079 -0.530561,-0.141703 -0.796019,-0.212729 -0.319601,0.11449 -0.639305,0.228859 -0.959136,0.343113 -0.0934,0.0859 -0.186924,0.171675 -0.280567,0.257338 -0.0044,0.208277 -0.0086,0.416429 -0.01305,0.624469 0.70698,-0.01361 1.413814,-0.02733 2.120542,-0.04118 0.111039,0.14194 0.22196,0.283758 0.332765,0.425461 0.08494,0.130504 0.169762,0.260885 0.254466,0.391152 0.132788,0.360396 0.265453,0.720659 0.398007,1.080813 0.145841,0.18426 0.291558,0.368393 0.437161,0.552415 0.27851,0.157953 0.556897,0.315784 0.835168,0.473499 0.276334,-0.0159 0.552544,-0.03191 0.82864,-0.04803 0.426412,-0.237782 0.852688,-0.47567 1.278853,-0.71368 0.335061,-0.317842 0.669989,-0.635789 1.004806,-0.953861 0.15889,-0.24693 0.317651,-0.493968 0.476307,-0.741128 0.108863,-0.155431 0.217611,-0.310973 0.32624,-0.466636 0.219789,-0.166868 0.439448,-0.333848 0.658998,-0.500947 0.195863,0.06417 0.391602,0.128213 0.587231,0.192144 0.17629,0.06417 0.352452,0.128212 0.528504,0.192143 0.187163,0.321509 0.374201,0.642888 0.561125,0.964155 -0.176056,0.430163 -0.352222,0.860193 -0.528509,1.290112 -0.319601,0.351246 -0.639309,0.70236 -0.959136,1.053364 -0.321778,0.147659 -0.643658,0.295194 -0.965666,0.442617 -0.145602,0.07446 -0.29132,0.1488 -0.437156,0.223025 -0.197801,0.169391 -0.395712,0.338657 -0.593747,0.507809 -0.05208,0.353534 -0.104281,0.706936 -0.156598,1.060228 0.322012,0.208277 0.643892,0.416429 0.965661,0.624469 0.208916,0.01042 0.417708,0.02071 0.626385,0.03088 0.785274,-0.896575 1.570403,-1.793231 2.35543,-2.690022 0.204563,-0.320129 0.408998,-0.640364 0.613323,-0.960721 0.250237,-0.230919 0.500346,-0.461946 0.750345,-0.693093 0.206739,-0.0605 0.413355,-0.121118 0.619856,-0.181852 0.328537,0.219715 0.656945,0.439304 0.985238,0.658781 0.132789,0.149947 0.265453,0.299772 0.398007,0.449481 0.241537,0.369546 0.482946,0.73896 0.724248,1.108264 0.02185,0.326082 0.04361,0.652034 0.06525,0.977877 -0.05426,0.152233 -0.108633,0.304344 -0.163127,0.456342 -0.230426,0.552544 -0.460962,1.104951 -0.691623,1.657248 -0.328302,0.345526 -0.656706,0.690923 -0.985238,1.036206 -0.239126,0.05845 -0.478363,0.116777 -0.717719,0.17499 -0.460976,0.10191 -0.922048,0.203697 -1.383245,0.305372 -0.369624,0.144227 -0.739353,0.288335 -1.109202,0.432327 -0.04774,0.228864 -0.09558,0.457601 -0.14355,0.686226 0.156713,0.281478 0.313303,0.562828 0.469778,0.844068 0.108868,0.241444 0.217612,0.482764 0.326241,0.723969 -0.12603,0.368403 -0.252171,0.736673 -0.37843,1.104832 -0.400073,0.31007 -0.800252,0.620011 -1.200555,0.929842 -0.315253,0.219718 -0.630613,0.439307 -0.946097,0.658781 0.245889,0.323795 0.49165,0.647461 0.737296,0.971017 0.191515,0.0022 0.382907,0.0047 0.574183,0.0069 0.480782,-0.09825 0.961432,-0.196602 1.441971,-0.295079 0.402484,-0.05707 0.804834,-0.11426 1.207074,-0.171562 0.439461,-0.05478 0.878781,-0.109678 1.317995,-0.164693 0.380739,0.06188 0.761345,0.123637 1.14184,0.185282 0.15889,0.05273 0.317656,0.105339 0.476307,0.157829 -0.0064,0.530813 -0.01292,1.061489 -0.01959,1.592054 -0.258703,0.326086 -0.517513,0.652039 -0.776446,0.977882 -0.387024,0.137366 -0.77415,0.274609 -1.161405,0.411736 -0.402249,-0.01017 -0.804599,-0.02048 -1.207078,-0.03087 -0.395725,-0.0891 -0.791551,-0.178303 -1.187502,-0.267634 -0.282627,-0.115401 -0.565366,-0.230908 -0.848225,-0.346543 -0.132554,-0.03534 -0.265218,-0.07079 -0.398002,-0.106369 -0.310901,0.01384 -0.621909,0.02756 -0.93304,0.04118 -0.271752,0.165958 -0.543614,0.331792 -0.815596,0.497515 -0.141254,0.24259 -0.282619,0.485051 -0.424108,0.727402 0.06754,0.160239 0.13496,0.320358 0.202268,0.480362 z" />
    </g>
  </g>
</svg>
